<?xml version="1.0" standalone="no"?>
<!DOCTYPE svg PUBLIC "-//W3C//DTD SVG 20010904//EN"
 "http://www.w3.org/TR/2001/REC-SVG-20010904/DTD/svg10.dtd">
<svg version="1.0" xmlns="http://www.w3.org/2000/svg"
 width="260.000000pt" height="260.000000pt" viewBox="0 0 260.000000 260.000000"
 preserveAspectRatio="xMidYMid meet">
<metadata>
Created by potrace 1.14, written by Peter Selinger 2001-2017
</metadata>
<g transform="translate(0.000000,260.000000) scale(0.100000,-0.100000)"
fill="#000000" stroke="none">
<path d="M442 1681 c-107 -37 -182 -105 -243 -221 -21 -40 -24 -58 -24 -160 0
-112 1 -117 35 -179 45 -84 105 -143 188 -183 l67 -33 835 0 835 0 67 33 c83
40 143 99 188 183 34 62 35 67 35 179 0 112 -1 117 -35 179 -45 84 -105 143
-188 183 l-67 33 -820 2 c-773 2 -823 2 -873 -16z m425 -117 c3 -9 -4 -92 -17
-185 -18 -136 -20 -172 -10 -184 18 -21 -5 -47 -39 -43 -22 3 -26 8 -29 43 -2
22 4 102 13 177 10 76 15 148 12 160 -4 12 -1 28 5 35 15 18 57 16 65 -3z
m-114 -43 c21 -21 -10 -34 -76 -32 -71 3 -77 -3 -77 -76 0 -32 1 -33 46 -33
38 0 45 -3 42 -17 -2 -14 -15 -19 -50 -21 l-47 -3 -6 -47 c-3 -26 -8 -58 -11
-71 -5 -23 -4 -23 66 -19 66 3 70 3 70 -18 0 -12 -7 -25 -16 -28 -30 -12 -171
-7 -181 7 -6 8 -3 61 9 152 27 205 28 209 63 217 42 10 155 2 168 -11z m368
-122 c76 -82 0 -249 -115 -249 -80 0 -122 50 -113 131 7 53 43 116 79 136 13
7 45 12 71 13 42 0 53 -4 78 -31z m158 14 c9 -17 10 -17 28 0 11 9 32 17 47
17 24 0 27 -3 24 -27 -2 -23 -9 -29 -34 -31 -53 -5 -71 -36 -81 -132 -8 -83
-9 -85 -36 -88 -38 -5 -42 13 -23 119 11 65 12 97 5 111 -21 39 48 70 70 31z
m299 1 c16 -11 22 -25 22 -52 -1 -61 -47 -102 -114 -102 -39 0 -45 -14 -26
-51 13 -23 52 -25 70 -4 16 20 39 19 47 -2 11 -27 -32 -53 -89 -53 -41 0 -54
5 -79 29 -25 26 -29 37 -29 88 0 68 23 113 72 143 39 24 95 26 126 4z m150 0
c9 -16 11 -16 33 0 13 9 38 16 55 16 96 0 101 -186 7 -260 -23 -18 -36 -21
-75 -17 -54 7 -58 2 -58 -79 0 -58 -17 -78 -49 -57 -21 14 -18 101 10 246 15
84 17 112 8 123 -9 11 -9 17 1 29 17 20 57 19 68 -1z m296 -26 l26 -43 16 43
c13 33 22 42 41 42 47 0 39 -32 -31 -125 -14 -19 2 -66 34 -95 21 -20 26 -30
18 -43 -17 -31 -55 -21 -84 23 -15 22 -30 40 -33 40 -4 0 -18 -18 -30 -41 -17
-30 -28 -39 -44 -37 -37 5 -31 35 17 86 l46 49 -15 37 c-8 20 -24 42 -35 48
-20 13 -26 38 -13 51 3 4 19 7 34 7 22 0 33 -9 53 -42z"/>
<path d="M996 1371 c-35 -38 -42 -132 -13 -168 16 -22 54 -15 71 12 10 14 20
48 23 75 9 81 -38 129 -81 81z"/>
<path d="M1487 1387 c-17 -12 -37 -58 -37 -83 0 -21 33 -17 58 6 38 36 19 108
-21 77z"/>
<path d="M1773 1384 c-24 -10 -51 -70 -58 -126 -8 -64 2 -76 49 -64 46 11 76
145 40 180 -8 9 -16 16 -17 15 -1 0 -7 -3 -14 -5z"/>
</g>
</svg>
